<svg xmlns="http://www.w3.org/2000/svg" viewBox="0 0 1488.91 64.75"><defs><style>.cls-1{fill:#ef5b2a;}.cls-2{fill:#fff;}</style></defs><g id="图层_2" data-name="图层 2"><g id="textblock"><path id="text-0" class="cls-1" d="M8.88,16.62V64.75H0V2.69H8.88l37.3,48.13V2.69h8.88V64.75H46.18ZM71,64.75V2.69H116.2v8.88H79.84V29.3h31v8.88h-31V64.75ZM128.57,2.69h8.88v53.2h31.89v8.86H128.57ZM219,38.18H188.86a8.47,8.47,0,0,1-3.44-.71,9.55,9.55,0,0,1-2.84-1.92,8.55,8.55,0,0,1-1.91-2.8A8.75,8.75,0,0,1,180,29.3h0V11.57a8.8,8.8,0,0,1,.69-3.46,8.65,8.65,0,0,1,1.91-2.8,9.52,9.52,0,0,1,2.84-1.91,8.47,8.47,0,0,1,3.44-.71H219a8.47,8.47,0,0,1,3.44.71,9.39,9.39,0,0,1,2.84,1.91,8.71,8.71,0,0,1,2.59,6.26h0v8H219v-8H188.86V29.3H219a8.31,8.31,0,0,1,3.44.71,8.82,8.82,0,0,1,2.84,1.89,9,9,0,0,1,1.9,2.84,8.63,8.63,0,0,1,.69,3.44h0V55.89a8.77,8.77,0,0,1-.69,3.44,9.15,9.15,0,0,1-1.9,2.83,8.85,8.85,0,0,1-2.84,1.9,8.63,8.63,0,0,1-3.44.69H188a8.66,8.66,0,0,1-3.44-.69,9,9,0,0,1-2.84-1.9,9.12,9.12,0,0,1-1.89-2.83,8.45,8.45,0,0,1-.71-3.44h0v-8H188v8h31Z"/><path id="text-0-2" data-name="text-0" class="cls-2" d="M309.38,37.26H279.24a8.53,8.53,0,0,1-3.43-.71A9.65,9.65,0,0,1,273,34.64a8.71,8.71,0,0,1-2.59-6.26h0V10.65A8.71,8.71,0,0,1,273,4.4a9.68,9.68,0,0,1,2.84-1.92,8.53,8.53,0,0,1,3.43-.71h30.14a8.58,8.58,0,0,1,3.44.71,9.76,9.76,0,0,1,2.83,1.92,8.52,8.52,0,0,1,1.9,2.8,8.75,8.75,0,0,1,.69,3.45h0v8h-8.86v-8H279.24V28.38h30.14a8.58,8.58,0,0,1,3.44.71,9,9,0,0,1,2.83,1.9,8.85,8.85,0,0,1,2.59,6.27h0V55a8.73,8.73,0,0,1-.69,3.44,8.83,8.83,0,0,1-4.73,4.73,8.73,8.73,0,0,1-3.44.69h-31a8.8,8.8,0,0,1-6.27-2.59,9,9,0,0,1-1.92-2.83,8.73,8.73,0,0,1-.69-3.44h0V47h8.88v8h31Zm54.44-11h-22v29h22V47.52h8.52v7.79a8.29,8.29,0,0,1-.67,3.33,8.64,8.64,0,0,1-1.83,2.71,8.44,8.44,0,0,1-2.69,1.81,8.29,8.29,0,0,1-3.33.67h-22a8.16,8.16,0,0,1-3.28-.67A8.34,8.34,0,0,1,334,58.64a8.29,8.29,0,0,1-.67-3.33h0v-29a8.29,8.29,0,0,1,.67-3.33,8.64,8.64,0,0,1,1.81-2.71,8.76,8.76,0,0,1,2.71-1.81,8.17,8.17,0,0,1,3.28-.68h22a8.3,8.3,0,0,1,3.33.68,8.44,8.44,0,0,1,2.69,1.81,8.53,8.53,0,0,1,1.83,2.71,8.29,8.29,0,0,1,.67,3.33h0v7.78h-8.52ZM387,17.74h8.51V63.83H387Zm-.44-8.88V0h9.39V8.86ZM449.1,26.27V45.13H418.59V55.31H449.1v8.52H418.59a8.17,8.17,0,0,1-3.29-.67,8.83,8.83,0,0,1-2.7-1.81,8.64,8.64,0,0,1-1.83-2.71,8.46,8.46,0,0,1-.67-3.33h0v-29a8.49,8.49,0,0,1,2.5-6,8.83,8.83,0,0,1,2.7-1.81,8.18,8.18,0,0,1,3.29-.68h22a8.35,8.35,0,0,1,3.34.68,8.34,8.34,0,0,1,4.52,4.52,8.46,8.46,0,0,1,.67,3.33Zm-8.53,0h-22V36.61h22Zm63.48,0V63.83h-8.51V26.27H471.77V63.83H463.3V17.74h8.47v8.14a8.7,8.7,0,0,1,.78-3.19,8.45,8.45,0,0,1,1.85-2.59,8.83,8.83,0,0,1,2.65-1.74,8.55,8.55,0,0,1,3.25-.62h15.24a8.35,8.35,0,0,1,3.34.68,8.91,8.91,0,0,1,2.69,1.81,8.53,8.53,0,0,1,1.83,2.71,8.63,8.63,0,0,1,.65,3.33Zm44.67,0h-22v29h22V47.52h8.53v7.79a8.3,8.3,0,0,1-.68,3.33,8.45,8.45,0,0,1-1.82,2.71,8.6,8.6,0,0,1-2.7,1.81,8.29,8.29,0,0,1-3.33.67h-22a8.22,8.22,0,0,1-3.3-.67,8.76,8.76,0,0,1-2.71-1.81,8.94,8.94,0,0,1-1.81-2.71,8.29,8.29,0,0,1-.67-3.33h0v-29a8.29,8.29,0,0,1,.67-3.33,8.34,8.34,0,0,1,4.52-4.52,8.23,8.23,0,0,1,3.3-.68h22a8.3,8.3,0,0,1,3.33.68,8.6,8.6,0,0,1,2.7,1.81,8.6,8.6,0,0,1,2.5,6h0v7.78h-8.53Zm61.71,0V45.13H579.92V55.31h30.51v8.52H579.92a8.22,8.22,0,0,1-3.3-.67,8.55,8.55,0,0,1-2.69-1.81,8.64,8.64,0,0,1-1.83-2.71,8.29,8.29,0,0,1-.67-3.33h0v-29a8.29,8.29,0,0,1,.67-3.33,8.52,8.52,0,0,1,4.52-4.52,8.23,8.23,0,0,1,3.3-.68h22a8.3,8.3,0,0,1,3.33.68A8.8,8.8,0,0,1,608,20.23a8.62,8.62,0,0,1,1.8,2.71,8.3,8.3,0,0,1,.68,3.33Zm-8.53,0h-22V36.61h22Zm99.18-9.39v7.05q0,13-11.08,14.8h0l11.68,25.1h-9.82L680.36,39H660.93v24.8h-8.88V1.77h34q15,0,15.05,15.11Zm-40.15-6.23V30.17h24.62q3.56,0,5.11-1.56t1.56-5.1h0V17.3q0-3.54-1.56-5.1t-5.11-1.55H660.93ZM754,26.27V45.13H723.5V55.31H754v8.52H723.5a8.2,8.2,0,0,1-3.29-.67,8.64,8.64,0,0,1-2.71-1.81,8.76,8.76,0,0,1-1.81-2.71,8.3,8.3,0,0,1-.68-3.33h0v-29a8.3,8.3,0,0,1,.68-3.33,8.34,8.34,0,0,1,4.52-4.52,8.21,8.21,0,0,1,3.29-.68h22a8.3,8.3,0,0,1,3.33.68,8.44,8.44,0,0,1,2.69,1.81,8.53,8.53,0,0,1,1.83,2.71,8.29,8.29,0,0,1,.67,3.33Zm-8.52,0h-22V36.61h22Zm21.8,29H796V44.62h-20.2a8.31,8.31,0,0,1-3.34-.68,8.91,8.91,0,0,1-2.71-1.8A8.8,8.8,0,0,1,768,39.42a8.29,8.29,0,0,1-.67-3.33h0V26.27a8.29,8.29,0,0,1,.67-3.33,8.64,8.64,0,0,1,1.81-2.71,8.76,8.76,0,0,1,2.71-1.81,8.31,8.31,0,0,1,3.34-.68h27v8.53h-27v9.82H796a8.34,8.34,0,0,1,3.32.67A9,9,0,0,1,802,38.57a8.53,8.53,0,0,1,1.85,2.71,8.34,8.34,0,0,1,.67,3.34h0V55.31a8.29,8.29,0,0,1-.67,3.33A8.53,8.53,0,0,1,802,61.35a8.78,8.78,0,0,1-2.69,1.81,8.18,8.18,0,0,1-3.32.67H767.29Zm89.54-29V45.13H826.32V55.31h30.51v8.52H826.32a8.22,8.22,0,0,1-3.3-.67,8.44,8.44,0,0,1-2.69-1.81,8.64,8.64,0,0,1-1.83-2.71,8.29,8.29,0,0,1-.67-3.33h0v-29a8.29,8.29,0,0,1,.67-3.33,8.53,8.53,0,0,1,1.83-2.71A8.44,8.44,0,0,1,823,18.42a8.23,8.23,0,0,1,3.3-.68h22a8.3,8.3,0,0,1,3.33.68,8.34,8.34,0,0,1,4.52,4.52,8.3,8.3,0,0,1,.68,3.33Zm-8.53,0h-22V36.61h22Zm22.72,29V43.71a8.32,8.32,0,0,1,.66-3.31,8.87,8.87,0,0,1,1.83-2.71,8.21,8.21,0,0,1,2.71-1.83,8.09,8.09,0,0,1,3.28-.67h22V26.27H873.67V17.74h27.81a8.3,8.3,0,0,1,3.33.68,8.76,8.76,0,0,1,2.71,1.81,8.58,8.58,0,0,1,2.48,6h0V63.83h-8.52V56.05a7.89,7.89,0,0,1-.85,3,9,9,0,0,1-1.9,2.5,8.38,8.38,0,0,1-2.61,1.67,8.16,8.16,0,0,1-3.11.6H879.5a8.09,8.09,0,0,1-3.28-.67,8.47,8.47,0,0,1-4.54-4.52,8.46,8.46,0,0,1-.66-3.33Zm8.48-11.6v11.6h22V43.71Zm70.76-17.44H932.68V63.83H924.2V17.74h8.48v8.14a8.7,8.7,0,0,1,.78-3.19,8.42,8.42,0,0,1,1.84-2.59A8.88,8.88,0,0,1,938,18.36a8.61,8.61,0,0,1,3.24-.62h9.06a8.09,8.09,0,0,1,3.3.68,9,9,0,0,1,2.71,1.81,8.5,8.5,0,0,1,2.52,6h0v7.78h-8.53Zm49.58,0h-22v29h22V47.52h8.53v7.79a8.46,8.46,0,0,1-.67,3.33,8.94,8.94,0,0,1-1.81,2.71,8.8,8.8,0,0,1-2.72,1.81,8.29,8.29,0,0,1-3.33.67h-22a8.22,8.22,0,0,1-3.3-.67,8.55,8.55,0,0,1-2.69-1.81A8.64,8.64,0,0,1,970,58.64a8.46,8.46,0,0,1-.67-3.33h0v-29a8.49,8.49,0,0,1,2.5-6,8.55,8.55,0,0,1,2.69-1.81,8.23,8.23,0,0,1,3.3-.68h22a8.3,8.3,0,0,1,3.33.68,8.32,8.32,0,0,1,4.53,4.52,8.46,8.46,0,0,1,.67,3.33h0v7.78h-8.53Zm63.48,0V63.83h-8.53V26.27H1031V63.83h-8.47V0H1031V25.88a8.7,8.7,0,0,1,.78-3.19,8.59,8.59,0,0,1,1.84-2.59,9,9,0,0,1,2.66-1.74,8.55,8.55,0,0,1,3.25-.62h15.22a8.24,8.24,0,0,1,3.34.68,8.76,8.76,0,0,1,2.71,1.81,8.34,8.34,0,0,1,1.82,2.71,8.46,8.46,0,0,1,.66,3.33ZM1105,1.77h8.86V63.83H1105Zm64.68,24.5V63.83h-8.52V26.27h-23.76V63.83h-8.49V17.74h8.49v8.14a8.7,8.7,0,0,1,.78-3.19,8.44,8.44,0,0,1,7.75-5h15.23a8.3,8.3,0,0,1,3.33.68,8.76,8.76,0,0,1,2.71,1.81,8.58,8.58,0,0,1,2.48,6Zm14.63-8.53h8.52V63.83h-8.52Zm-.43-8.88V0h9.4V8.86Zm20.9,17.41V17.74H1216V3.55h8.53V17.74h15.15v8.53h-15.15v29h15.15v8.52h-15.15a8.16,8.16,0,0,1-3.28-.67,9,9,0,0,1-2.73-1.81,8.39,8.39,0,0,1-2.52-6h0v-29Zm49.55-8.53h8.52V63.83h-8.52Zm-.45-8.88V0h9.4V8.86Zm23.6,46.45V43.71a8.16,8.16,0,0,1,.67-3.31,8.64,8.64,0,0,1,1.81-2.71,8.31,8.31,0,0,1,2.71-1.83,8.19,8.19,0,0,1,3.28-.67h22V26.27h-27.83V17.74h27.83a8.3,8.3,0,0,1,3.33.68,8.83,8.83,0,0,1,2.7,1.81,8.47,8.47,0,0,1,2.48,6h0V63.83h-8.51V56.05a7.91,7.91,0,0,1-.87,3,9,9,0,0,1-1.88,2.5,8.67,8.67,0,0,1-2.62,1.67,8.18,8.18,0,0,1-3.12.6h-13.51a8.19,8.19,0,0,1-3.28-.67,8.76,8.76,0,0,1-2.71-1.81,8.42,8.42,0,0,1-1.81-2.71,8.29,8.29,0,0,1-.67-3.33Zm8.47-11.6v11.6h22V43.71Zm42-17.44V17.74h11.24V3.55h8.53V17.74h15.15v8.53h-15.15v29h15.15v8.52h-15.15a8.16,8.16,0,0,1-3.28-.67,9,9,0,0,1-2.73-1.81,8.53,8.53,0,0,1-1.85-2.71,8.29,8.29,0,0,1-.67-3.33h0v-29Zm49.55-8.53H1386V63.83h-8.52ZM1377,8.86V0h9.4V8.86Zm45.58,55h-8.88L1395.3,17.74h8.88l14,35.88,14-35.88h8.88Zm66.29-37.56V45.13h-30.5V55.31h30.5v8.52h-30.5a8.22,8.22,0,0,1-3.3-.67,8.44,8.44,0,0,1-2.69-1.81,8.64,8.64,0,0,1-1.83-2.71,8.29,8.29,0,0,1-.67-3.33h0v-29a8.29,8.29,0,0,1,.67-3.33,8.53,8.53,0,0,1,1.83-2.71,8.44,8.44,0,0,1,2.69-1.81,8.23,8.23,0,0,1,3.3-.68h22a8.3,8.3,0,0,1,3.33.68,8.34,8.34,0,0,1,4.52,4.52,8.29,8.29,0,0,1,.67,3.33Zm-8.52,0h-22V36.61h22Z"/></g></g></svg>